<?xml version="1.0" encoding="iso-8859-1"?>
<!-- Generator: Adobe Illustrator 19.0.0, SVG Export Plug-In . SVG Version: 6.00 Build 0)  -->
<svg version="1.1" id="Capa_1" xmlns="http://www.w3.org/2000/svg" xmlns:xlink="http://www.w3.org/1999/xlink" x="0px" y="0px"
	 viewBox="0 0 512.008 512.008" style="enable-background:new 0 0 512.008 512.008;" xml:space="preserve">
<g>
	<g>
		<path d="M276.002,327.392c-4.424,0-8,3.576-8,8v104.616c0,4.424,3.576,8,8,8s8-3.576,8-8V335.392
			C284.002,330.968,280.426,327.392,276.002,327.392z"/>
	</g>
</g>
<g>
	<g>
		<path d="M436.002,328.008c-4.424,0-8,3.576-8,8v104c0,4.424,3.576,8,8,8s8-3.576,8-8v-104
			C444.002,331.584,440.426,328.008,436.002,328.008z"/>
	</g>
</g>
<g>
	<g>
		<path d="M362.586,243.448c-2.528-3.624-7.504-4.544-11.136-2.024l-104,72c-3.632,2.52-4.536,7.504-2.024,11.136
			c1.552,2.248,4.048,3.448,6.584,3.448c1.568,0,3.16-0.464,4.552-1.424l104-72C364.194,252.064,365.098,247.08,362.586,243.448z"/>
	</g>
</g>
<g>
	<g>
		<path d="M464.562,313.424l-104-72c-3.64-2.52-8.624-1.6-11.136,2.024c-2.512,3.632-1.608,8.624,2.024,11.136l104,72
			c1.384,0.96,2.976,1.424,4.544,1.424c2.536,0,5.032-1.2,6.592-3.448C469.098,320.928,468.194,315.936,464.562,313.424z"/>
	</g>
</g>
<g>
	<g>
		<path d="M362.586,275.448c-2.528-3.632-7.504-4.544-11.136-2.024l-104,72c-3.632,2.52-4.536,7.504-2.024,11.136
			c1.552,2.248,4.048,3.448,6.584,3.448c1.568,0,3.16-0.464,4.552-1.424l104-72C364.194,284.064,365.098,279.08,362.586,275.448z"/>
	</g>
</g>
<g>
	<g>
		<path d="M464.562,345.424l-104-72c-3.64-2.52-8.624-1.608-11.136,2.024c-2.512,3.632-1.608,8.624,2.024,11.136l104,72
			c1.384,0.96,2.976,1.424,4.544,1.424c2.536,0,5.032-1.2,6.592-3.448C469.098,352.928,468.194,347.936,464.562,345.424z"/>
	</g>
</g>
<g>
	<g>
		<path d="M252.002,312.008c-4.424,0-8,3.576-8,8v32c0,4.424,3.576,8,8,8s8-3.576,8-8v-32
			C260.002,315.584,256.426,312.008,252.002,312.008z"/>
	</g>
</g>
<g>
	<g>
		<path d="M460.002,312.008c-4.424,0-8,3.576-8,8v32c0,4.424,3.576,8,8,8s8-3.576,8-8v-32
			C468.002,315.584,464.426,312.008,460.002,312.008z"/>
	</g>
</g>
<g>
	<g>
		<path d="M380.002,368.008h-48c-4.424,0-8,3.576-8,8v64c0,4.424,3.576,8,8,8h48c4.424,0,8-3.576,8-8v-64
			C388.002,371.584,384.426,368.008,380.002,368.008z M372.002,432.008h-32v-48h32V432.008z"/>
	</g>
</g>
<g>
	<g>
		<path d="M436.002,432.008h-160c-4.424,0-8,3.576-8,8s3.576,8,8,8h160c4.424,0,8-3.576,8-8S440.426,432.008,436.002,432.008z"/>
	</g>
</g>
<g>
	<g>
		<path d="M116.002,32.008c-4.424,0-8,3.576-8,8v432c0,4.424,3.576,8,8,8s8-3.576,8-8v-432
			C124.002,35.584,120.426,32.008,116.002,32.008z"/>
	</g>
</g>
<g>
	<g>
		<path d="M172.002,32.008c-4.424,0-8,3.576-8,8v432c0,4.424,3.576,8,8,8s8-3.576,8-8v-432
			C180.002,35.584,176.426,32.008,172.002,32.008z"/>
	</g>
</g>
<g>
	<g>
		<path d="M196.002,464.008h-104c-4.424,0-8,3.576-8,8s3.576,8,8,8h104c4.424,0,8-3.576,8-8S200.426,464.008,196.002,464.008z"/>
	</g>
</g>
<g>
	<g>
		<path d="M196.002,464.008c-4.424,0-8,3.576-8,8v32c0,4.424,3.576,8,8,8s8-3.576,8-8v-32
			C204.002,467.584,200.426,464.008,196.002,464.008z"/>
	</g>
</g>
<g>
	<g>
		<path d="M92.002,464.008c-4.424,0-8,3.576-8,8v32c0,4.424,3.576,8,8,8s8-3.576,8-8v-32
			C100.002,467.584,96.426,464.008,92.002,464.008z"/>
	</g>
</g>
<g>
	<g>
		<path d="M212.002,496.008h-136c-4.424,0-8,3.576-8,8s3.576,8,8,8h136c4.424,0,8-3.576,8-8S216.426,496.008,212.002,496.008z"/>
	</g>
</g>
<g>
	<g>
		<path d="M492.002,144.008H172.01c-4.424,0-8,3.576-8,8s3.576,8,8,8h319.992c4.424,0,8-3.576,8-8S496.426,144.008,492.002,144.008z
			"/>
	</g>
</g>
<g>
	<g>
		<path d="M498.658,147.568l-32-48c-2.456-3.68-7.416-4.664-11.096-2.216c-3.68,2.456-4.672,7.416-2.216,11.096l32,48
			c1.536,2.312,4.08,3.56,6.664,3.56c1.52,0,3.064-0.44,4.432-1.344C500.122,156.208,501.114,151.248,498.658,147.568z"/>
	</g>
</g>
<g>
	<g>
		<path d="M460.002,96.008h-288c-4.424,0-8,3.576-8,8s3.576,8,8,8h288c4.424,0,8-3.576,8-8S464.426,96.008,460.002,96.008z"/>
	</g>
</g>
<g>
	<g>
		<path d="M116.002,96.008h-32c-4.424,0-8,3.576-8,8s3.576,8,8,8h32c4.424,0,8-3.576,8-8S120.426,96.008,116.002,96.008z"/>
	</g>
</g>
<g>
	<g>
		<path d="M116.002,144.008h-32c-4.424,0-8,3.576-8,8s3.576,8,8,8h32c4.424,0,8-3.576,8-8S120.426,144.008,116.002,144.008z"/>
	</g>
</g>
<g>
	<g>
		<path d="M149.266,1.984c-3.32-2.912-8.368-2.584-11.288,0.76l-28,32c-2.904,3.32-2.568,8.376,0.76,11.288
			c1.512,1.328,3.392,1.976,5.264,1.976c2.224,0,4.44-0.92,6.024-2.736l28-32C152.93,9.952,152.594,4.896,149.266,1.984z"/>
	</g>
</g>
<g>
	<g>
		<path d="M178.026,34.744l-28-32c-2.928-3.344-7.976-3.672-11.288-0.76c-3.328,2.912-3.664,7.968-0.76,11.288l28,32
			c1.584,1.816,3.8,2.736,6.024,2.736c1.872,0,3.752-0.648,5.264-1.976C180.594,43.12,180.93,38.064,178.026,34.744z"/>
	</g>
</g>
<g>
	<g>
		<path d="M84.002,64.008h-40c-4.424,0-8,3.576-8,8s3.576,8,8,8h32v88h-56c-4.424,0-8,3.576-8,8s3.576,8,8,8h64c4.424,0,8-3.576,8-8
			v-104C92.002,67.584,88.426,64.008,84.002,64.008z"/>
	</g>
</g>
<g>
	<g>
		<path d="M44.002,64.008c-17.648,0-32,14.352-32,32c0,4.424,3.576,8,8,8s8-3.576,8-8c0-8.824,7.176-16,16-16c4.424,0,8-3.576,8-8
			S48.426,64.008,44.002,64.008z"/>
	</g>
</g>
<g>
	<g>
		<path d="M20.002,88.008c-4.424,0-8,3.576-8,8v80c0,4.424,3.576,8,8,8s8-3.576,8-8v-80C28.002,91.584,24.426,88.008,20.002,88.008z
			"/>
	</g>
</g>
<g>
	<g>
		<path d="M468.002,496.008h-224c-4.424,0-8,3.576-8,8s3.576,8,8,8h224c4.424,0,8-3.576,8-8S472.426,496.008,468.002,496.008z"/>
	</g>
</g>
<g>
	<g>
		<path d="M356.002,144.008c-4.424,0-8,3.576-8,8v96c0,4.424,3.576,8,8,8s8-3.576,8-8v-96
			C364.002,147.584,360.426,144.008,356.002,144.008z"/>
	</g>
</g>
<g>
</g>
<g>
</g>
<g>
</g>
<g>
</g>
<g>
</g>
<g>
</g>
<g>
</g>
<g>
</g>
<g>
</g>
<g>
</g>
<g>
</g>
<g>
</g>
<g>
</g>
<g>
</g>
<g>
</g>
</svg>
