<svg id="deadline" enable-background="new 0 0 300 300" height="512" viewBox="0 0 300 300" width="512" xmlns="http://www.w3.org/2000/svg"><g><path d="m141.508 70c7.719 0 14-6.281 14-14s-6.281-14-14-14-14 6.281-14 14 6.281 14 14 14zm0-20c3.309 0 6 2.691 6 6s-2.691 6-6 6-6-2.691-6-6 2.691-6 6-6z"/><path d="m141.508 231.47c-2.502 0-4.53 2.028-4.53 4.53 0 2.501 2.028 4.53 4.53 4.53 2.501 0 4.53-2.028 4.53-4.53-.001-2.502-2.029-4.53-4.53-4.53z"/><path d="m241.684 233.824c-1.562-1.562-4.094-1.562-5.656 0l-4.52 4.52-4.52-4.52c-1.562-1.562-4.094-1.562-5.656 0s-1.562 4.094 0 5.656l4.52 4.52-4.52 4.52c-1.562 1.562-1.562 4.094 0 5.656.781.781 1.805 1.172 2.828 1.172s2.047-.391 2.828-1.172l4.52-4.52 4.52 4.52c.781.781 1.805 1.172 2.828 1.172s2.047-.391 2.828-1.172c1.562-1.562 1.562-4.094 0-5.656l-4.52-4.52 4.52-4.52c1.562-1.562 1.562-4.093 0-5.656z"/><path d="m256.492 153.236c0-40.121-32.641-72.764-72.762-72.764-40.125 0-72.766 32.643-72.766 72.764s32.641 72.764 72.766 72.764c40.122 0 72.762-32.643 72.762-72.764zm-72.762 64.764c-35.711 0-64.766-29.053-64.766-64.764s29.055-64.764 64.766-64.764 64.762 29.053 64.762 64.764-29.051 64.764-64.762 64.764z"/><path d="m183.73 100.406c-29.133 0-52.832 23.699-52.832 52.83s23.699 52.83 52.832 52.83c29.129 0 52.828-23.699 52.828-52.83s-23.699-52.83-52.828-52.83zm34.064 81.897-7.188-7.393c-1.539-1.582-4.07-1.619-5.656-.078-1.582 1.539-1.617 4.072-.078 5.656l7.223 7.429c-6.816 5.585-15.305 9.178-24.586 9.958v-11.875c0-2.209-1.789-4-4-4s-4 1.791-4 4v11.853c-9.221-.866-17.64-4.527-24.391-10.139l7.024-7.227c1.539-1.584 1.504-4.115-.078-5.656-1.586-1.537-4.125-1.5-5.656.082l-6.955 7.156c-5.609-6.657-9.325-14.955-10.292-24.068h8.349c2.211 0 4-1.791 4-4s-1.789-4-4-4h-8.445c.715-9.939 4.667-18.977 10.829-26.079l7.589 7.806c.785.807 1.824 1.211 2.867 1.211 1.004 0 2.012-.377 2.789-1.133 1.582-1.539 1.617-4.072.078-5.656l-7.579-7.796c6.663-5.376 14.882-8.888 23.872-9.733v9.379c0 2.209 1.789 4 4 4s4-1.791 4-4v-9.402c9.05.76 17.332 4.213 24.059 9.563l-7.766 7.988c-1.539 1.584-1.504 4.117.078 5.656.777.756 1.785 1.133 2.789 1.133 1.043 0 2.082-.404 2.867-1.211l7.818-8.042c6.281 7.138 10.318 16.264 11.041 26.315h-8.887c-2.211 0-4 1.791-4 4s1.789 4 4 4h8.79c-.98 9.224-4.782 17.605-10.505 24.303z"/><path d="m192.114 156.95-4.606-12.283v-10.667c0-2.209-1.789-4-4-4s-4 1.791-4 4v20c0 1.061.422 2.078 1.172 2.828l12 12c.781.781 1.805 1.172 2.828 1.172s2.047-.391 2.828-1.172c1.562-1.562 1.562-4.094 0-5.656z"/><path d="m91.508 54h-44c-2.211 0-4 1.791-4 4v40c0 2.209 1.789 4 4 4h44c2.211 0 4-1.791 4-4v-40c0-2.209-1.789-4-4-4zm-4 40h-36v-32h36z"/><path d="m62.441 90.551c.762.904 1.883 1.426 3.062 1.426h.074c1.207-.023 2.34-.59 3.082-1.541l14.004-17.977c1.355-1.744 1.043-4.258-.699-5.615s-4.258-1.043-5.613.697l-10.964 14.078-3.121-3.713c-1.422-1.689-3.945-1.91-5.637-.488s-1.91 3.945-.488 5.637z"/><path d="m91.508 106h-44c-2.211 0-4 1.791-4 4v40c0 2.209 1.789 4 4 4h44c2.211 0 4-1.791 4-4v-40c0-2.209-1.789-4-4-4zm-4 40h-36v-32h36z"/><path d="m62.441 142.551c.762.904 1.883 1.426 3.062 1.426h.074c1.207-.023 2.34-.59 3.082-1.541l14.004-17.977c1.355-1.744 1.043-4.258-.699-5.615-1.742-1.359-4.258-1.047-5.613.697l-10.965 14.078-3.121-3.713c-1.422-1.691-3.945-1.91-5.637-.488s-1.91 3.945-.488 5.637z"/><path d="m91.508 158h-44c-2.211 0-4 1.791-4 4v40c0 2.209 1.789 4 4 4h44c2.211 0 4-1.791 4-4v-40c0-2.209-1.789-4-4-4zm-4 40h-36v-32h36z"/><path d="m62.441 194.551c.762.904 1.883 1.426 3.062 1.426h.074c1.207-.023 2.34-.59 3.082-1.541l14.004-17.977c1.355-1.744 1.043-4.258-.699-5.615-1.742-1.359-4.258-1.045-5.613.697l-10.965 14.078-3.121-3.713c-1.422-1.689-3.945-1.912-5.637-.488-1.691 1.422-1.91 3.945-.488 5.637z"/><path d="m91.508 210h-44c-2.211 0-4 1.791-4 4v40c0 2.209 1.789 4 4 4h44c2.211 0 4-1.791 4-4v-40c0-2.209-1.789-4-4-4zm-4 40h-36v-32h36z"/></g></svg>