<?xml version="1.0" encoding="utf-8"?>
<!-- Generator: Adobe Illustrator 24.0.1, SVG Export Plug-In . SVG Version: 6.00 Build 0)  -->
<svg version="1.1" id="Layer_1" xmlns="http://www.w3.org/2000/svg" xmlns:xlink="http://www.w3.org/1999/xlink" x="0px" y="0px"
	 viewBox="0 0 66 66" style="enable-background:new 0 0 66 66;" xml:space="preserve">
<path d="M35.5,23.2h-5.7c-0.9,0-1.6,0.7-1.6,1.6v6.6h-1.7c-0.9,0-1.6,0.7-1.6,1.6c0,0.9,0.7,1.6,1.6,1.6h1.7v1.7h-1.7
	c-0.9,0-1.6,0.7-1.6,1.6c0,0.9,0.7,1.6,1.6,1.6h1.7v1.7c0,0.9,0.7,1.6,1.6,1.6c0.9,0,1.6-0.7,1.6-1.6v-1.7h3.3
	c0.9,0,1.6-0.7,1.6-1.6c0-0.9-0.7-1.6-1.6-1.6h-3.3v-1.7h4.1c3.1,0,5.7-2.6,5.7-5.7C41.2,25.8,38.6,23.2,35.5,23.2z M35.5,31.4h-4.1
	v-5h4.1c1.4,0,2.5,1.1,2.5,2.5S36.8,31.4,35.5,31.4L35.5,31.4z"/>
</svg>
