<svg id="Layer_3" enable-background="new 0 0 64 64" height="512" viewBox="0 0 64 64" width="512" xmlns="http://www.w3.org/2000/svg"><g><path d="m62 1h-44c-.553 0-1 .448-1 1v4c0 .552.447 1 1 1h21v2h-1c-.553 0-1 .448-1 1v6c0 .552.447 1 1 1h12c.553 0 1-.448 1-1v-6c0-.552-.447-1-1-1h-1v-2h8v36h-19c-.553 0-1 .447-1 1v8c0 .553.447 1 1 1h3v8h-9.296l-2.857-8h3.153c1.654 0 3-1.346 3-3v-2-32c0-1.654-1.346-3-3-3h-5v-1c0-1.103-.897-2-2-2h-14c-1.103 0-2 .897-2 2v1h-5c-1.654 0-3 1.346-3 3v32 2c0 1.654 1.346 3 3 3h3.153l-2.857 8h-2.296v2h40 20c.553 0 1-.447 1-1v-10-8-42c0-.552-.447-1-1-1zm-13 14h-10v-4h10zm-2-6h-6v-2h6zm11-4h-39v-2h42v40h-2v-37c0-.552-.447-1-1-1zm-19 40h22v6h-19-3zm-36 2v-8h30v8zm30-10h-30v-16h30zm-12.704 12 1.429 4h-7.449l1.429-4zm-6.735 6h8.877l.714 2h-10.305zm-1.428 4h11.734l.714 2h-13.162zm10.286-10h2.877l4.286 12h-2.877zm9.581 2h-3.867l-.714-2h5.581v1c0 .552-.448 1-1 1zm-21-39h14l.001 4h-14.001zm-7 3h5v1c0 1.103.897 2 2 2h14c1.103 0 2-.897 2-2v-1h5c.552 0 1 .449 1 1v3h-30v-3c0-.551.448-1 1-1zm0 36c-.552 0-1-.448-1-1v-1h5.581l-.714 2zm6.704-2h2.877l-4.285 12h-2.877zm50.296 12h-18v-8h18z"/><path d="m11 40h-6c-.553 0-1 .447-1 1v4c0 .553.447 1 1 1h6c.553 0 1-.447 1-1v-4c0-.553-.447-1-1-1zm-1 4h-4v-2h4z"/><path d="m31 40h-6c-.553 0-1 .447-1 1v4c0 .553.447 1 1 1h6c.553 0 1-.447 1-1v-4c0-.553-.447-1-1-1zm-1 4h-4v-2h4z"/><path d="m5 36h26c.553 0 1-.447 1-1v-12c0-.552-.447-1-1-1h-26c-.553 0-1 .448-1 1v12c0 .553.447 1 1 1zm1-12h24v10h-24z"/><path d="m14 42h8v2h-8z"/><path d="m8.757 28h8.485v2h-8.485z" transform="matrix(.707 -.707 .707 .707 -16.699 17.686)"/><path d="m18.757 28h8.485v2h-8.485z" transform="matrix(.707 -.707 .707 .707 -13.77 24.757)"/></g></svg>